<?xml version="1.0" encoding="UTF-8" standalone="no"?>
<!-- Created with Inkscape (http://www.inkscape.org/) -->

<svg
   width="48"
   height="48"
   viewBox="0 0 10 10"
   version="1.1"
   id="svg1"
   xmlns="http://www.w3.org/2000/svg"
   xmlns:svg="http://www.w3.org/2000/svg">
  <defs
     id="defs1" />
  <g
     id="layer1">
    <path
       id="path2"
       style="fill:#000000;stroke-width:0.0207424"
       d="M 4.9788925,0.79160404 C 4.969625,0.78229646 0.04303053,9.3964948 0.00299327,9.4958362 3.3361121,9.5225373 9.9623538,9.4452192 9.9623538,9.4452192 9.8827735,9.3135528 4.9995238,0.81232455 4.9788925,0.79160404 Z M 4.9625856,2.306991 8.4169053,8.6441079 H 1.5078092 Z" />
  </g>
  <path
     style="fill:#333333;stroke-width:0.0594796"
     d="M 0.14532672,45.518333 C 0.00963671,45.382581 23.655802,4.2203677 23.84789,3.9117505 31.884364,16.819646 40.103912,31.822133 47.94052,45.630756 c 0,0.01061 -47.67279805,0.01003 -47.79519328,-0.112423 z M 40.402681,41.501859 c 0.0243,-0.04695 -16.531892,-30.438662 -16.581766,-30.438662 -0.05016,0 -16.6055996,30.391876 -16.5809204,30.438662 0.030771,0.05833 33.1325004,0.05833 33.1626864,0 z"
     id="path1"
     transform="scale(0.20833333)" />
</svg>
