<?xml version="1.0" encoding="UTF-8" standalone="no"?>
<!-- Created with Inkscape (http://www.inkscape.org/) -->

<svg
   width="16.933332mm"
   height="16.933332mm"
   viewBox="0 0 16.933332 16.933332"
   version="1.1"
   id="svg1"
   xml:space="preserve"
   xmlns="http://www.w3.org/2000/svg"
   xmlns:svg="http://www.w3.org/2000/svg"><defs
     id="defs1" /><g
     id="layer1"
     transform="translate(-56.642841,-68.328163)"><path
       style="fill:#000000"
       d="m 63.849647,84.160385 c -0.22985,-0.22985 -0.327639,-1.454536 -0.327639,-4.103272 V 76.28148 l -2.924689,-2.420674 c -3.140448,-2.599252 -3.465811,-3.207973 -2.070859,-3.874368 1.228602,-0.586926 4.748985,-0.930729 7.905964,-0.772101 3.370505,0.169357 5.2218,0.598909 5.662242,1.313796 0.315487,0.512073 0.295461,0.533902 -3.762003,4.100667 l -1.900239,1.670428 v 3.11909 c 0,2.809754 -0.05994,3.20825 -0.604404,4.018113 -0.647177,0.962646 -1.446999,1.255328 -1.978373,0.723954 z m 1.789027,-4.967748 v -3.364403 l 4.736771,-3.783109 c -1.811259,0.327933 -3.286124,0.351007 -5.447582,0.38408 -2.279495,0.03488 -5.395732,-0.448237 -5.166719,-0.247367 1.603667,1.092293 3.075274,2.356354 4.554614,3.607016 v 3.766182 c 0,2.0714 0.08754,3.853723 0.194535,3.960718 0.106995,0.106994 0.404651,-0.06495 0.661459,-0.38209 0.556828,-0.51651 0.466922,-1.120344 0.466922,-3.941027 z m 4.630208,-7.888376 c 1.951418,-0.580311 0.385537,-1.094369 -3.96875,-1.302886 -4.213467,-0.201774 -8.798655,0.506477 -7.214474,1.114385 1.634455,0.627199 9.274943,0.755985 11.183224,0.188501 z"
       id="path1" /></g></svg>
