<?xml version="1.0" encoding="UTF-8" standalone="no"?>
<svg
   width="14"
   height="14"
   viewBox="0 0 7.9504983 7.1971714"
   version="1.1"
   id="svg1"
   xmlns="http://www.w3.org/2000/svg"
   xmlns:svg="http://www.w3.org/2000/svg">
  <defs
     id="defs1" />
  <g
     id="layer1"
     style="fill:#333333"
     transform="translate(-1.1519074,-1.0302074)">
    <path
       id="path2"
       style="fill:#333333;stroke-width:0.0207424"
       d="M 4.9665009,8.2258386 C 4.6940404,8.2448313 4.7194343,8.1407466 2.9184522,4.8030905 1.1174701,1.4654344 1.0375006,1.4379193 1.2173675,1.1944689 1.3972345,0.95101842 1.4060263,1.0492681 5.1003936,1.0524911 8.7947609,1.0557141 8.8909005,0.97125387 9.0453775,1.2203028 9.1998546,1.4693516 9.1768714,1.2919539 7.1608339,4.8098117 5.1447964,8.3276695 5.2389615,8.206846 4.9665009,8.2258386 Z M 4.9873625,7.4167714 8.2558085,1.6496669 1.8175922,1.6372757 Z" />
  </g>
  <path
     style="fill:#333333;stroke-width:0.0173482"
     d="M 3.9686386,6.8135068 1.1926508,1.7521685 3.1985559,1.7481971 c 1.1032479,-0.00218 3.6453118,0.00172 5.6490314,0.00867 l 3.6431257,0.012646 -2.8624566,5.052315 C 8.0539049,9.600605 6.7610354,11.874304 6.7552129,11.874496 6.7493903,11.874688 5.495432,9.5972429 3.9686386,6.8135068 Z"
     id="path1"
     transform="matrix(0.56789274,0,0,0.56789274,0,-0.37666345)" />
</svg>
