<?xml version="1.0" encoding="UTF-8" standalone="no"?>
<svg
   width="14"
   height="14"
   viewBox="0 0 7.9504983 7.1971714"
   version="1.1"
   id="svg1"
   xmlns="http://www.w3.org/2000/svg"
   xmlns:svg="http://www.w3.org/2000/svg">
  <defs
     id="defs1" />
  <path
     style="fill:#333333;stroke-width:0.0173482"
     d="M 0.82403965,13.31579 C 0.56151434,13.29927 0.4784989,13.286112 0.3608894,13.242377 0.19796763,13.181792 0.0086741,12.926863 0.0086741,12.768035 c 0,-0.295142 0.24553346,-0.797753 1.656717,-3.3913312 C 2.7391999,7.4031785 3.534428,5.9272268 4.675138,3.7905824 6.0059457,1.297869 6.1701013,1.010283 6.3850255,0.79501229 6.4956052,0.68425429 6.57221,0.65975327 6.7565612,0.67618165 c 0.2407856,0.0214575 0.3321854,0.0973715 0.606205,0.50349615 0.3059347,0.453426 0.6070403,0.9632946 1.8799713,3.1833953 2.2092495,3.8531192 2.5057285,4.3654892 3.7995415,6.5662949 0.775257,1.31873 0.949047,1.652898 0.949047,1.824854 0,0.108767 -0.14205,0.337362 -0.255753,0.411571 -0.08778,0.05729 -0.231815,0.09172 -0.481553,0.115109 -0.147264,0.01379 -1.725833,0.02087 -5.3952839,0.0242 -2.8529121,0.0026 -5.5540273,0.0091 -6.0024784,0.01452 -0.448451,0.0054 -0.91294915,0.0037 -1.03221805,-0.0038 z M 12.512926,12.248196 C 12.520716,12.24128 6.7669493,2.0913665 6.7549686,2.0908896 6.7434617,2.0904316 1.1710037,12.243939 1.1710037,12.265363 c 0,0.01106 11.3294413,-0.0061 11.3419223,-0.01717 z"
     id="path3"
     transform="matrix(0.56789274,0,0,0.56789274,0,-0.37666345)" />
  <path
     style="fill:#333333;stroke-width:0.0173482"
     d="m 1.2275699,12.182776 c 0.023383,-0.04055 1.2742666,-2.3201056 2.7797408,-5.0656756 1.5054743,-2.74557 2.74201,-4.9917827 2.7478572,-4.9915837 0.00585,1.989e-4 1.2987806,2.2738978 2.873185,5.0526641 l 2.8625541,5.0523022 -2.9145987,0.01047 c -1.603029,0.0058 -4.1468456,0.01161 -5.6529257,0.01301 l -2.7383276,0.0025 z"
     id="path1"
     transform="matrix(0.56789274,0,0,0.56789274,0,-0.37666345)" />
</svg>
